<svg xmlns="http://www.w3.org/2000/svg" viewBox="0 0 120 120" fill="none">
  <polygon points="60,4 110,32 110,88 60,116 10,88 10,32" stroke="#c0c8d8" stroke-width="2" fill="none" opacity="0.6"/>
  <polygon points="60,18 96,39 96,81 60,102 24,81 24,39" stroke="#c0c8d8" stroke-width="1" fill="none" opacity="0.3"/>
  <rect x="48" y="52" width="24" height="22" rx="2" fill="#c0c8d8" opacity="0.9"/>
  <circle cx="60" cy="62" r="5" fill="#0a0a0c" opacity="0.8"/>
  <circle cx="60" cy="62" r="3" fill="#8a9ab0" opacity="0.7"/>
  <line x1="48" y1="68" x2="36" y2="80" stroke="#c0c8d8" stroke-width="2" opacity="0.8"/>
  <line x1="36" y1="80" x2="32" y2="80" stroke="#c0c8d8" stroke-width="2.5" opacity="0.8"/>
  <line x1="72" y1="68" x2="84" y2="80" stroke="#c0c8d8" stroke-width="2" opacity="0.8"/>
  <line x1="84" y1="80" x2="88" y2="80" stroke="#c0c8d8" stroke-width="2.5" opacity="0.8"/>
  <rect x="52" y="38" width="16" height="16" rx="1" fill="#c0c8d8" opacity="0.75"/>
  <line x1="60" y1="38" x2="60" y2="26" stroke="#c0c8d8" stroke-width="1.5" opacity="0.7"/>
  <circle cx="60" cy="24" r="2.5" fill="#d4aa60" opacity="0.9"/>
  <line x1="10" y1="32" x2="18" y2="36" stroke="#d4aa60" stroke-width="1" opacity="0.5"/>
  <line x1="110" y1="32" x2="102" y2="36" stroke="#d4aa60" stroke-width="1" opacity="0.5"/>
  <line x1="10" y1="88" x2="18" y2="84" stroke="#d4aa60" stroke-width="1" opacity="0.5"/>
  <line x1="110" y1="88" x2="102" y2="84" stroke="#d4aa60" stroke-width="1" opacity="0.5"/>
</svg>
